<?xml version="1.0" encoding="utf-8"?>
<!-- Generator: Adobe Illustrator 16.0.0, SVG Export Plug-In . SVG Version: 6.00 Build 0)  -->
<!DOCTYPE svg PUBLIC "-//W3C//DTD SVG 1.1//EN" "http://www.w3.org/Graphics/SVG/1.1/DTD/svg11.dtd">
<svg version="1.1" id="图层_1" xmlns="http://www.w3.org/2000/svg" xmlns:xlink="http://www.w3.org/1999/xlink" x="0px" y="0px"
	 width="160px" height="33px" viewBox="0 0 160 33" enable-background="new 0 0 160 33" xml:space="preserve">
<g>
	<path fill="#FCFCFC" d="M125.448,7l-5.97,7.558h-0.736L121.882,7H125.448z M7.658,25.918c-2.079,0-3.916-0.513-5.267-1.2l-1.35,1.2
		H0.415L0,18.305l0.728-0.07c2.183,4.94,4.747,6.518,7.137,6.518c2.495,0,3.95-1.609,3.95-3.771c0-2.061-0.797-3.055-4.053-4.393
		c-1.109-0.446-2.39-0.892-3.465-1.406c-2.427-1.202-3.708-3.09-3.708-5.595c0-4.082,3.57-6.553,7.07-6.553
		c1.73,0,2.91,0.481,4.053,1.132L13.062,3h0.59l0.59,6.725l-0.693,0.104c-1.907-3.775-3.95-5.628-6.202-5.628
		c-1.976,0-3.293,1.304-3.293,3.328c0,1.613,0.694,2.847,3.152,3.912c1.213,0.548,2.635,1.03,3.917,1.648
		c2.805,1.339,4.123,3.086,4.123,5.625C15.246,23.243,11.4,25.918,7.658,25.918 M25.977,25.57c-5.267,0-7.864-3.738-7.864-8.301
		c0-4.221,2.979-8.27,8.314-8.27c5.267,0,7.797,3.706,7.797,8.234C34.224,21.49,31.313,25.57,25.977,25.57 M26.116,9.96
		c-2.426,0-3.915,2.676-3.915,7.377c0,4.632,1.595,7.272,4.054,7.272c2.529,0,3.915-2.674,3.915-7.375
		C30.17,12.602,28.68,9.96,26.116,9.96 M41.387,25.313c-2.737,0-3.603-1.336-3.603-3.808v-10.26H35.22v-0.48l3.187-2.504L40.937,5
		h0.52v4.462h5.267v1.783h-5.267v8.886c0,1.374,0.207,2.197,0.901,2.676c0.59,0.413,1.386,0.551,2.53,0.551
		c0.554,0,1.247-0.037,1.905-0.07l0.034,0.482C45.477,24.591,43.258,25.313,41.387,25.313 M58.004,12.009
		c-1.317,0-2.323,0.24-3.603,0.86v11.354l1.939,0.721v0.479h-7.83v-0.479l2.182-0.721V3.499l-2.39-1.544V1.613L54.26,0l0.14,0.103
		v12.01l0.139,0.068c2.045-1.921,3.916-2.78,5.786-2.78c3.12,0,4.436,2.334,4.436,4.77v10.052l2.183,0.721v0.479h-7.833v-0.479
		l1.943-0.721v-8.645C61.054,13.348,60.152,12.008,58.004,12.009 M72.38,16.103c0,4.357,1.246,7.204,5.161,7.204
		c1.733,0,3.154-0.341,5.232-1.096l0.207,0.41c-2.112,1.816-4.468,2.949-6.688,2.949c-4.745,0-7.865-3.223-7.865-7.992
		c0-4.907,3.743-8.578,7.97-8.578c4.575,0,6.792,3.054,6.754,7.103H72.38z M79.274,14.936c-0.14-3.225-1.076-4.976-3.12-4.976
		c-2.01,0-3.568,2.094-3.741,5.284L79.274,14.936z M91.801,25.973c-1.8,0-4.191-0.412-5.855-0.891V3.499l-2.424-1.544V1.612
		L89.514,0l0.141,0.103v11.494l0.138,0.07c1.213-1.202,2.876-2.266,5.024-2.266c3.291,0,6.272,2.986,6.272,7.893
		C101.089,22.199,97.346,25.973,91.801,25.973 M92.391,11.804c-0.939-0.005-1.871,0.182-2.736,0.55v10.875
		c0.993,1.016,2.355,1.584,3.775,1.578c2.043,0,3.741-1.817,3.741-6.654C97.171,13.897,95.336,11.804,92.391,11.804 M110.818,26.536
		c-1.732,4.221-3.36,6.073-5.51,6.073c-1.836,0-2.703-1.063-2.703-2.16c0-1.065,0.971-1.955,2.08-1.955
		c1.178,0,1.869,0.617,2.703,1.643c0.657-0.718,1.453-1.955,1.906-2.914l0.588-1.304l-6.132-14.65l-2.116-0.824V10h8.456v0.445
		l-2.218,0.824l3.742,10.053h0.173l3.396-9.813l-2.01-1.065V10h5.96v0.445l-2.252,1.133L110.818,26.536 M131.007,25.533
		c-1.925,0-3.573-0.309-5.187-0.924l-0.034-4.518l0.7-0.068c1.893,3.252,3.33,4.482,5.187,4.482c1.647,0,2.664-1.023,2.664-2.6
		c0-1.78-1.856-2.465-3.854-3.252c-2.207-0.924-4.557-1.951-4.557-4.792c0-2.705,2.453-4.862,6.028-4.862
		c1.366,0,3.294,0.275,4.239,0.617l0.105,4.073l-0.666,0.172c-1.716-2.774-2.838-3.835-4.451-3.835c-1.47,0-2.382,0.959-2.382,2.191
		c0,1.78,1.894,2.5,3.89,3.287c2.209,0.89,4.593,1.915,4.593,4.825C137.282,23.516,134.406,25.533,131.007,25.533 M146.677,20.326
		l0.056,0.126l-0.891,0.706c-0.412,0.326-0.597,0.497-0.605,1.094l-0.019,0.995h2.44V22.85c0-0.524-0.192-0.732-0.799-0.923
		l-0.301-0.09v-0.164h2.514v0.163l-0.285,0.09c-0.596,0.19-0.807,0.399-0.807,0.924v0.397h2.449l-0.027-1.347
		c-0.01-0.517-0.184-0.725-0.541-1.006l-0.99-0.76L148.906,20l1.845,0.208v5.01h-0.156l-0.192-0.84h-5.147l-0.192,0.84h-0.156v-4.72
		L146.677,20.326 M151.035,16.98c0,0.543-0.137,1.023-0.32,1.375l0.32,0.353v0.163l-2.037,0.109l-0.018-0.19
		c1.32-0.57,1.742-1.24,1.742-1.863c0-0.652-0.431-1.032-1.01-1.032c-0.55,0-0.816,0.208-1.173,1.059
		c-0.12,0.289-0.24,0.624-0.377,0.903c-0.32,0.634-0.826,0.969-1.496,0.969c-1.091,0-1.752-0.932-1.752-1.845
		c0-0.452,0.128-0.76,0.303-1.059l-0.312-0.352v-0.154l1.798-0.154l0.026,0.181c-1.008,0.498-1.504,1.031-1.504,1.62
		c0,0.516,0.35,0.858,0.891,0.858c0.431,0,0.761-0.18,1.046-0.823c0.146-0.315,0.274-0.687,0.44-1.021
		c0.357-0.732,0.826-1.076,1.504-1.076C150.32,15,151.035,16.004,151.035,16.98 M146.805,9.154l-0.916,0.687
		c-0.515,0.398-0.652,0.588-0.671,1.05v0.352h5.185l0.193-0.886h0.155v2.912h-0.155l-0.193-0.886h-5.185v0.407
		c0.019,0.452,0.156,0.642,0.671,1.04l0.916,0.687l-0.046,0.145l-1.853-0.28V9.289L146.759,9L146.805,9.154 M151.141,8.597
		c-0.006,0.331-0.276,0.597-0.607,0.597c-0.329-0.001-0.596-0.268-0.596-0.597c0-0.335,0.266-0.597,0.596-0.597
		c0.331-0.003,0.603,0.263,0.605,0.594c0,0.001,0,0.002,0,0.003 M159.514,22h0.147v2.939h-0.147l-0.357-0.977h-4.35l-0.431,0.985
		h-0.11l-0.304-1.927l0.028-0.045h5.166L159.514,22z M155.154,21.266l0.541,0.461l-0.026,0.09l-1.67-0.243l-0.037-0.091l0.267-0.199
		v-3.229L154.311,18l5.672,2.587v0.931l-2.24-1.319l-2.588-1.438V21.266z M155.467,15.972v0.018l1.928,1.546v-1.564H155.467z
		 M158.102,14.977h1.109l0.357-0.94h0.147v2.894h-0.147l-0.357-0.96h-1.109v2.28l-0.166,0.072l-3.974-3.21l0.056-0.136h3.377V14
		h0.707V14.977L158.102,14.977z M155.467,10.972v0.018l1.928,1.546v-1.564H155.467z M158.102,9.977h1.109l0.357-0.94h0.147v2.893
		h-0.147l-0.357-0.958h-1.109v2.279l-0.166,0.072l-3.974-3.21l0.056-0.136h3.377V9h0.707V9.977L158.102,9.977z"/>
</g>
</svg>
